<svg xmlns="http://www.w3.org/2000/svg" viewBox="-0.011462637223303318 0.06055255979299545 109.99146270751953 120.49649047851562">
  <path fill="currentColor" d="M0 85.85C0 80.92.06 76 0 71a3.65 3.65 0 0 1 2-3.5Q20.56 57 39.1 46.44q9.39-5.36 18.8-10.67a1.77 1.77 0 0 0 .94-1.77c0-10.11.08-20.22-.07-30.33 0-2.83 2.41-4.61 5.17-3C71.72 5 79.58 9.2 87.42 13.46a3.52 3.52 0 0 1 2 3.41v15.39q.09 16.64.2 33.26c.06 7.67.18 15.35.2 23a2.39 2.39 0 0 0 1.47 2.28c5.53 3.19 11 6.43 16.57 9.61a3.46 3.46 0 0 1 2.12 3.11 3.39 3.39 0 0 1-2.15 3q-12 6.66-24 13.41a3.78 3.78 0 0 1-4.17 0Q55 105.42 30.2 91a3.14 3.14 0 0 0-3.71 0c-7 4.24-14.16 8.37-21.24 12.55a3.48 3.48 0 0 1-3.44.47A3 3 0 0 1 0 101V85.85zM88.36 89l.2-.24c-.13-.27-.24-.56-.38-.82l-4.08-7.3L60 37.72a7.18 7.18 0 0 0-1.06-1.16 5.43 5.43 0 0 0-1 1Q43.74 62.7 29.61 87.84c-.17.31-.28.65-.42 1l.23.2c.54-.28 1.09-.54 1.62-.84q13.5-7.64 27-15.32a2.35 2.35 0 0 1 2.69 0q13 7.64 26 15.18c.49.31 1.06.61 1.63.94z"/>
</svg>
